<?xml version="1.0" encoding="utf-8"?>
<!-- Generator: Adobe Illustrator 15.0.0, SVG Export Plug-In . SVG Version: 6.00 Build 0)  -->
<!DOCTYPE svg PUBLIC "-//W3C//DTD SVG 1.1//EN" "http://www.w3.org/Graphics/SVG/1.1/DTD/svg11.dtd">
<svg version="1.1" id="Layer_1" xmlns="http://www.w3.org/2000/svg" xmlns:xlink="http://www.w3.org/1999/xlink" x="0px" y="0px"
	 width="50px" height="50px" viewBox="0 0 100 100" enable-background="new 0 0 100 100" xml:space="preserve">
<path fill="#FFFFFF" d="M93.788,15.344c0,0-0.347,0.027-0.493,0H71.541L46.576,39.525l-9.931,9.832c0,0-4.016,3.975,0,7.989
	l10.374,10.368l26.385-26.255l22.672-22.441C99.504,15.195,93.788,15.344,93.788,15.344z"/>
<path fill="#FFFFFF" d="M42.544,15.344H7.183c-1.46,0.11-4.48,0.714-1.416,3.915l0.496,0.491c0.037,0.034,0.067,0.067,0.106,0.102
	l-0.001,0.001l12.26,12.135l0,0l0,0l0.411,0.406c0.788,0.699,2.719,2.053,5.868,2.053h1.883h20.443l19.833-19.103H42.544
	L42.544,15.344z"/>
<path fill="#FFFFFF" d="M90.015,82.168L61.35,53.422L47.019,67.714l15.563,15.405l0.006-0.004c0,0,0.029,0.033,0.078,0.086
	l0.211,0.209c0.691,0.65,2.658,2.166,5.99,2.166v0.006h18.674C88.344,85.574,92.643,85.377,90.015,82.168z"/>
<polygon fill="#FFFFFF" points="61.35,53.422 47.019,67.715 64.236,56.316 "/>
</svg>
