<?xml version="1.0" encoding="utf-8"?>
<!-- Generator: Adobe Illustrator 15.0.0, SVG Export Plug-In . SVG Version: 6.00 Build 0)  -->
<!DOCTYPE svg PUBLIC "-//W3C//DTD SVG 1.1//EN" "http://www.w3.org/Graphics/SVG/1.1/DTD/svg11.dtd">
<svg version="1.1" id="Layer_1" xmlns="http://www.w3.org/2000/svg" xmlns:xlink="http://www.w3.org/1999/xlink" x="0px" y="0px"
	 width="120px" height="120px" viewBox="0 0 216 216" enable-background="new 0 0 216 216" xml:space="preserve">
<path fill="#FF7043" d="M202.582,33.143c0,0-0.748,0.058-1.066,0h-46.988l-53.923,52.232l-21.452,21.236c0,0-8.674,8.586,0,17.255
	l22.408,22.396l56.991-56.711l48.973-48.472C214.93,32.822,202.582,33.143,202.582,33.143z"/>
<path fill="#FF7043" d="M91.896,33.143h-76.38c-3.154,0.238-9.677,1.542-3.059,8.455l1.07,1.06c0.08,0.074,0.146,0.144,0.229,0.22
	l-0.003,0.004l26.482,26.211l0,0v0l0.888,0.877c1.701,1.509,5.874,4.435,12.676,4.435h4.068h44.156l42.839-41.263H91.896z"/>
<path fill="#E64719" d="M194.432,177.483l-61.916-62.093l-30.956,30.872l33.618,33.275l0.012-0.008c0,0,0.064,0.072,0.168,0.186
	l0.455,0.451c1.496,1.404,5.744,4.678,12.941,4.678v0.014h40.336C190.824,184.839,200.107,184.415,194.432,177.483z"/>
<polygon fill="#BF360C" points="132.516,115.391 101.56,146.263 138.752,121.643 "/>
</svg>
